<?xml version="1.0" standalone="no"?>
<!DOCTYPE svg PUBLIC "-//W3C//DTD SVG 20010904//EN"
 "http://www.w3.org/TR/2001/REC-SVG-20010904/DTD/svg10.dtd">
<svg version="1.0" xmlns="http://www.w3.org/2000/svg"
 width="500.000000pt" height="500.000000pt" viewBox="0 0 500.000000 500.000000"
 preserveAspectRatio="xMidYMid meet">
<metadata>
Created by potrace 1.14, written by Peter Selinger 2001-2017
</metadata>
<g transform="translate(0.000000,500.000000) scale(0.100000,-0.100000)"
fill="#000000" stroke="none">
<path d="M0 2500 l0 -2500 2500 0 2500 0 0 2500 0 2500 -794 0 -794 0 -23 -90
c-13 -50 -25 -86 -27 -80 -2 5 -21 10 -43 10 -37 0 -39 -1 -39 -32 0 -25 3
-29 12 -20 18 18 38 14 38 -7 0 -11 4 -21 8 -23 5 -1 -1 -37 -12 -78 -16 -56
-22 -68 -24 -47 -5 38 -20 34 -18 -5 1 -31 -1 -33 -29 -31 l-30 2 29 -11 c22
-8 30 -7 37 3 7 11 9 10 9 -3 0 -10 -6 -18 -12 -18 -25 0 -119 29 -133 40 -7
6 -19 10 -27 9 -18 -4 -73 9 -126 28 -30 11 -39 19 -30 24 9 6 3 9 -17 9 -24
0 -27 -2 -15 -11 11 -8 8 -9 -15 -4 -16 3 -34 12 -40 19 -15 20 -51 36 -77 35
-18 -1 -16 -3 11 -10 18 -6 31 -12 29 -15 -5 -4 -167 35 -177 43 -2 2 4 40 14
84 14 61 21 77 27 63 5 -12 7 -5 3 21 -2 22 -2 34 1 28 3 -7 23 -13 45 -13 39
0 39 0 39 40 l0 40 -1400 0 -1400 0 0 -2500z m2540 1814 c0 -4 -25 -106 -54
-228 -30 -121 -112 -450 -181 -731 -69 -280 -180 -733 -247 -1005 -66 -272
-124 -498 -127 -502 -3 -4 -74 91 -158 210 -84 119 -195 278 -248 352 -53 74
-145 205 -205 290 -60 85 -165 234 -233 330 -69 96 -123 178 -120 182 2 4 61
47 131 96 70 49 183 129 252 178 69 48 175 123 235 165 61 43 297 211 525 373
228 162 418 295 423 295 4 1 7 -2 7 -5z m785 -221 c33 -47 105 -150 160 -228
545 -772 730 -1037 730 -1046 0 -11 -201 -155 -955 -686 -395 -278 -508 -358
-558 -395 -30 -22 -55 -38 -57 -36 -1 1 15 73 36 158 41 165 260 1053 454
1843 65 262 121 477 124 477 3 -1 33 -40 66 -87z m-1215 -2757 l0 -104 37 19
c129 66 267 -43 249 -195 -15 -133 -165 -217 -278 -156 -30 16 -37 17 -42 5
-3 -8 -12 -15 -21 -15 -13 0 -15 32 -15 250 l0 250 -25 0 c-36 0 -33 30 3 31
15 0 36 4 47 9 43 19 45 15 45 -94z m1630 -156 c0 -253 1 -260 20 -260 11 0
20 -7 20 -15 0 -12 -16 -15 -80 -15 -76 0 -104 12 -62 27 9 4 20 11 24 17 4 6
8 111 8 234 l0 222 -25 0 c-16 0 -25 6 -25 15 0 10 10 15 28 15 15 0 34 5 42
10 8 5 23 10 33 10 16 0 17 -19 17 -260z m-2690 210 c0 -6 -11 -15 -25 -20
-19 -7 -25 -17 -25 -39 0 -30 99 -325 106 -318 3 2 33 89 68 193 38 113 69
190 77 192 10 1 35 -58 83 -198 38 -111 70 -199 72 -197 5 5 124 350 124 360
0 4 -11 7 -25 7 -16 0 -25 6 -25 15 0 12 15 15 75 15 81 0 101 -16 46 -37 -23
-8 -33 -22 -48 -63 -99 -283 -151 -415 -163 -415 -8 0 -38 69 -81 183 -37 101
-69 186 -72 188 -2 2 -33 -80 -69 -183 -39 -115 -69 -188 -77 -188 -14 0 -50
93 -137 348 -37 111 -50 137 -65 137 -11 0 -19 7 -19 15 0 12 17 15 90 15 55
0 90 -4 90 -10z m1520 -80 l0 -50 65 0 c51 0 65 -3 65 -15 0 -12 -14 -15 -65
-15 l-65 0 0 -133 c0 -104 3 -137 16 -155 20 -29 55 -28 92 3 35 29 55 16 26
-17 -63 -69 -167 -62 -193 14 -6 17 -11 89 -11 159 l0 129 -30 0 c-40 0 -38
21 3 41 17 8 41 32 52 52 29 53 45 48 45 -13z m-701 -58 c45 -23 71 -59 78
-110 l6 -42 -132 0 -131 0 0 -27 c0 -45 20 -106 43 -130 41 -45 126 -39 182
12 30 29 35 30 35 12 0 -35 -92 -87 -155 -87 -40 0 -100 22 -129 48 -44 40
-65 123 -50 200 8 39 63 104 106 125 43 22 105 21 147 -1z m1169 -9 c14 -11
40 -36 56 -57 28 -34 31 -44 30 -107 0 -60 -4 -75 -30 -111 -102 -148 -325
-94 -342 82 -8 86 34 162 113 205 40 21 138 14 173 -12z m443 -3 c60 -40 84
-85 83 -161 0 -55 -5 -72 -30 -110 -75 -112 -238 -118 -310 -10 -32 49 -42
122 -24 176 15 46 65 103 105 122 45 20 132 12 176 -17z m544 14 c19 -10 31
-11 33 -5 2 6 10 11 18 11 11 0 14 -16 14 -65 0 -51 -3 -65 -15 -65 -9 0 -15
10 -15 26 0 35 -50 84 -87 84 -61 0 -95 -57 -55 -92 9 -9 51 -31 93 -50 42
-20 83 -46 92 -59 22 -30 22 -78 1 -108 -32 -45 -126 -65 -191 -40 -19 7 -29
7 -31 0 -2 -6 -12 -11 -23 -11 -17 0 -19 8 -19 65 0 48 3 65 14 65 7 0 16 -13
19 -30 12 -59 109 -90 160 -50 53 42 34 68 -84 122 -81 38 -109 66 -109 111 0
83 103 134 185 91z m-1877 -629 c-3 -3 -9 2 -12 12 -6 14 -5 15 5 6 7 -7 10
-15 7 -18z m495 -20 c-13 -25 -27 -45 -29 -45 -2 0 6 20 18 45 12 25 25 45 29
45 4 0 -4 -20 -18 -45z m367 35 c0 -5 -5 -10 -11 -10 -5 0 -7 5 -4 10 3 6 8
10 11 10 2 0 4 -4 4 -10z m-26 -50 c-10 -16 -19 -28 -21 -26 -6 6 20 56 29 56
5 0 1 -13 -8 -30z m-854 0 c-6 -11 -13 -20 -16 -20 -2 0 0 9 6 20 6 11 13 20
16 20 2 0 0 -9 -6 -20z m18 -47 c-8 -10 -14 -28 -13 -40 1 -12 -2 -20 -7 -17
-13 8 -9 36 9 56 21 23 31 24 11 1z m202 13 c0 -2 -7 -9 -15 -16 -13 -11 -14
-10 -9 4 5 14 24 23 24 12z m90 1 c0 -2 -10 -12 -22 -23 l-23 -19 19 23 c18
21 26 27 26 19z m-397 -17 c-12 -5 -29 -22 -37 -37 -8 -15 -15 -23 -16 -17 0
19 41 64 58 63 13 0 11 -3 -5 -9z m558 -13 c-10 -9 -11 -8 -5 6 3 10 9 15 12
12 3 -3 0 -11 -7 -18z m-98 -12 c-3 -9 -8 -14 -10 -11 -3 3 -2 9 2 15 9 16 15
13 8 -4z m-233 -25 c0 -5 -2 -10 -4 -10 -3 0 -8 5 -11 10 -3 6 -1 10 4 10 6 0
11 -4 11 -10z m504 -24 c-3 -15 -8 -25 -11 -23 -2 3 -1 17 3 31 3 15 8 25 11
23 2 -3 1 -17 -3 -31z m-461 -1 c-3 -9 -8 -14 -10 -11 -3 3 -2 9 2 15 9 16 15
13 8 -4z m-3 -45 c0 -5 -5 -10 -11 -10 -5 0 -7 5 -4 10 3 6 8 10 11 10 2 0 4
-4 4 -10z m457 -12 c-3 -8 -6 -5 -6 6 -1 11 2 17 5 13 3 -3 4 -12 1 -19z"/>
<path d="M2143 1224 l-33 -16 0 -125 c0 -118 1 -125 25 -148 43 -44 129 -25
160 36 36 69 28 182 -18 234 -29 34 -89 42 -134 19z"/>
<path d="M1753 1230 c-23 -10 -47 -41 -58 -77 -6 -23 -5 -23 91 -23 l97 0 -7
33 c-11 59 -67 90 -123 67z"/>
<path d="M2891 1227 c-43 -22 -63 -73 -58 -153 6 -118 58 -177 136 -158 53 14
76 60 75 154 -1 134 -67 202 -153 157z"/>
<path d="M3332 1227 c-44 -25 -57 -56 -57 -142 0 -63 4 -88 21 -115 44 -76
129 -78 172 -5 20 35 22 50 18 111 -2 40 -11 85 -20 102 -30 57 -83 77 -134
49z"/>
<path d="M3387 4981 c-4 -17 -3 -21 5 -13 5 5 8 16 6 23 -3 8 -7 3 -11 -10z"/>
<path d="M3363 4908 c0 -30 1 -30 10 -10 7 15 7 26 0 33 -6 6 -10 -1 -10 -23z"/>
<path d="M2692 4797 c-7 -19 -12 -38 -12 -44 0 -15 50 -23 74 -12 18 8 18 9
-5 4 -28 -5 -69 18 -56 31 4 5 12 2 18 -6 6 -10 7 -4 3 20 -4 19 -8 36 -9 37
0 1 -7 -12 -13 -30z"/>
<path d="M2843 4753 c9 -2 23 -2 30 0 6 3 -1 5 -18 5 -16 0 -22 -2 -12 -5z"/>
<path d="M3293 4730 c-6 -17 -8 -32 -3 -35 4 -2 10 9 14 27 8 41 3 45 -11 8z"/>
<path d="M3312 4710 c-5 -22 -6 -38 -2 -35 10 6 24 64 17 71 -2 3 -9 -13 -15
-36z"/>
<path d="M2765 4729 c-13 -6 -4 -7 30 -3 28 4 52 8 54 10 9 8 -65 2 -84 -7z"/>
<path d="M2860 4730 c0 -5 5 -10 10 -10 6 0 10 5 10 10 0 6 -4 10 -10 10 -5 0
-10 -4 -10 -10z"/>
<path d="M3036 4667 c10 -6 24 -5 38 1 18 8 16 10 -17 9 -28 -1 -33 -3 -21
-10z"/>
<path d="M3108 4671 c18 -11 -48 -24 -73 -15 -13 5 -16 4 -10 -5 5 -9 23 -11
62 -6 44 5 58 3 74 -11 10 -9 22 -15 25 -11 10 9 -4 25 -38 41 -33 17 -63 22
-40 7z"/>
</g>
</svg>
